<?xml version="1.0" standalone="no"?>
<!DOCTYPE svg PUBLIC "-//W3C//DTD SVG 20010904//EN"
 "http://www.w3.org/TR/2001/REC-SVG-20010904/DTD/svg10.dtd">
<svg version="1.0" xmlns="http://www.w3.org/2000/svg"
 width="700.000000pt" height="700.000000pt" viewBox="0 0 700.000000 700.000000"
 preserveAspectRatio="xMidYMid meet">
<metadata>
Created by potrace 1.14, written by Peter Selinger 2001-2017
</metadata>
<g transform="translate(0.000000,700.000000) scale(0.100000,-0.100000)"
fill="#000000" stroke="none">
<path d="M3468 5153 c6 -2 18 -2 25 0 6 3 1 5 -13 5 -14 0 -19 -2 -12 -5z"/>
<path d="M3538 5143 c6 -2 18 -2 25 0 6 3 1 5 -13 5 -14 0 -19 -2 -12 -5z"/>
<path d="M3598 5133 c7 -3 16 -2 19 1 4 3 -2 6 -13 5 -11 0 -14 -3 -6 -6z"/>
<path d="M3648 5123 c7 -3 16 -2 19 1 4 3 -2 6 -13 5 -11 0 -14 -3 -6 -6z"/>
<path d="M3688 5113 c7 -3 16 -2 19 1 4 3 -2 6 -13 5 -11 0 -14 -3 -6 -6z"/>
<path d="M3827 4790 l-168 -5 -23 -42 c-24 -42 -46 -123 -46 -169 0 -17 -14
-38 -41 -62 l-41 -37 7 -1069 7 -1069 -58 8 c-33 4 -61 9 -63 11 -3 2 -7 481
-9 1064 l-5 1060 -40 28 c-28 19 -46 43 -62 82 l-23 55 -48 1 c-38 1 -52 6
-70 27 -22 26 -25 27 -69 15 -25 -7 -45 -18 -45 -25 0 -27 -106 -10 -113 18
-8 29 -41 23 -53 -9 -10 -26 -18 -30 -88 -41 -53 -9 -76 -17 -76 -27 0 -11
-26 -14 -144 -14 -139 0 -144 -1 -139 -20 5 -18 0 -20 -56 -20 -34 0 -61 -4
-61 -10 0 -5 -21 -10 -46 -10 -46 0 -46 0 -42 30 3 17 3 30 2 30 -2 0 -23 -28
-48 -63 -94 -132 -176 -329 -176 -423 0 -35 -3 -44 -17 -44 -35 0 -245 -80
-319 -120 -225 -125 -397 -302 -498 -512 -115 -241 -134 -484 -55 -712 63
-183 141 -311 264 -431 123 -121 265 -199 448 -248 l82 -22 1535 0 1535 0 90
28 c119 37 255 105 336 166 68 52 187 187 247 280 43 67 83 164 108 261 28
112 26 432 -4 541 -50 183 -134 326 -279 475 -96 99 -169 152 -290 213 -141
71 -336 121 -475 121 l-58 0 0 41 c0 47 -52 208 -103 319 -36 78 -83 141 -201
266 l-69 74 -136 -2 c-75 -1 -212 -5 -304 -8z m-755 -480 c21 -6 51 -27 72
-50 30 -34 36 -47 36 -86 0 -55 -21 -99 -69 -140 l-36 -31 -3 -349 c-3 -409
-8 -385 110 -479 118 -93 110 -59 103 -463 -4 -218 -11 -355 -17 -369 -8 -17
-20 -23 -44 -23 -63 0 -64 7 -64 363 0 294 -1 321 -19 355 -11 20 -34 46 -51
57 -18 11 -35 28 -38 37 -6 15 -35 18 -269 23 -144 3 -270 8 -278 12 -9 3 -21
17 -26 30 -5 13 -9 161 -9 328 l0 304 -35 35 c-19 20 -49 43 -65 51 -21 11
-30 23 -32 43 -4 87 15 129 81 173 72 47 155 36 232 -33 25 -22 26 -26 20
-100 -6 -81 -28 -119 -78 -139 l-23 -9 0 -280 0 -280 200 0 200 0 0 353 0 354
-22 20 c-13 11 -31 23 -40 26 -30 11 -61 85 -55 134 12 110 103 165 219 133z
m903 -75 c35 -14 75 -85 75 -134 0 -48 -26 -100 -68 -137 l-37 -32 2 -288 c3
-339 2 -346 -72 -386 -27 -16 -67 -33 -87 -40 l-38 -11 0 -132 0 -132 188 -7
c103 -3 202 -4 219 0 23 4 50 26 93 75 72 81 93 89 236 89 56 0 116 3 133 6
l32 7 -3 91 -3 91 -47 25 -48 25 0 76 c0 65 3 81 25 110 14 19 28 42 31 52 9
25 47 31 114 17 32 -7 62 -10 68 -7 10 7 53 -36 70 -69 26 -50 -26 -234 -66
-234 -17 0 -18 -9 -14 -115 3 -77 0 -124 -8 -144 l-12 -30 -174 -3 -174 -3
-83 -86 c-57 -60 -94 -90 -121 -99 -61 -20 -490 -9 -533 13 l-32 17 6 212 c3
125 10 223 17 237 7 17 33 34 79 52 37 15 74 35 82 43 13 12 15 59 15 284 l0
270 -30 12 c-17 7 -40 25 -51 41 -25 35 -45 125 -36 161 10 37 62 74 128 92
55 15 70 14 124 -9z m-1873 -994 c38 -40 44 -59 38 -131 -4 -56 -39 -109 -90
-135 -40 -20 -162 2 -188 35 -35 46 -52 89 -52 134 0 38 6 52 35 84 43 48 83
62 160 57 55 -3 63 -7 97 -44z m-509 -133 c9 -5 25 -21 34 -36 9 -15 25 -36
35 -48 18 -20 17 -23 -9 -114 l-26 -93 27 -24 27 -23 660 0 c454 0 667 -3 681
-11 37 -20 48 -69 48 -219 0 -108 -4 -148 -15 -171 l-16 -30 -539 3 c-496 3
-541 4 -557 20 -25 25 -7 68 37 91 33 18 62 18 498 13 l462 -5 0 95 0 94 -645
0 -645 0 -65 69 c-46 47 -80 74 -113 86 -63 24 -98 52 -117 91 -29 61 -14 156
32 196 36 32 157 42 206 16z m3809 -20 c23 -18 46 -33 50 -33 16 0 28 -30 28
-73 0 -67 -38 -124 -105 -156 -30 -14 -59 -35 -65 -46 -6 -11 -15 -18 -19 -16
-4 3 -25 -12 -46 -34 -21 -21 -61 -49 -89 -61 -48 -21 -62 -21 -326 -19 -418
5 -406 5 -442 -30 -16 -16 -33 -30 -38 -30 -11 0 -78 -78 -96 -112 l-15 -28
73 -1 c40 -1 165 -5 278 -8 l205 -6 3 -27 c2 -15 -2 -36 -8 -48 -11 -20 -14
-20 -578 -18 l-567 3 0 50 c0 72 11 75 220 75 94 -1 184 0 200 2 35 3 92 59
199 191 49 61 81 91 108 102 32 12 99 15 410 15 332 0 373 2 390 17 26 23 23
66 -7 94 -20 19 -25 34 -25 75 0 63 32 106 105 141 63 30 102 25 157 -19z"/>
<path d="M2319 4713 c-13 -16 -12 -17 4 -4 9 7 17 15 17 17 0 8 -8 3 -21 -13z"/>
</g>
</svg>
